<svg version="1" xmlns="http://www.w3.org/2000/svg" width="512" height="512" viewBox="0 0 384.000000 384.000000"><path d="M0 192v192h384V0H0v192zM146.6 35.4c.8.8 1.4 2.2 1.4 3 0 1.1.9 1.6 3 1.6 2.7 0 3-.3 3-3v-3h166v12h3c2.7 0 3-.3 3-3s.3-3 3-3 3-.3 3-3v-3h6.6c4.3 0 7 .5 8 1.4 1.2 1.2 1.4 15.1 1.4 94 0 83.5-.2 92.6-1.6 92.6-2 0-4.4 2.4-4.4 4.4 0 1.1-.9 1.6-3 1.6-2.7 0-3 .3-3 3 0 2.9.2 3 4.6 3 2.6 0 5.1.6 6 1.4 1.2 1.2 1.4 10 1.4 55.6 0 59.8.3 57-6.4 57-3.3 0-3.6-.2-3.6-3 0-2.7-.3-3-3-3-2.1 0-3 .5-3 1.6 0 4.5.9 4.4-68 4.4s-68 .1-68-4.4c0-1.1-.9-1.6-3-1.6-2.7 0-3 .3-3 3v3H84v-3c0-2.6-.4-3-2.6-3-2.9 0-5.4 2.1-5.4 4.4 0 1.4-2.6 1.6-21 1.6H34V160h4.6c4.4 0 7.4-1.6 7.4-4 0-1.7-2.6-4-4.4-4-1.2 0-1.6-1.1-1.6-5 0-4.9-.1-5-3-5h-3V40h3c2.7 0 3-.3 3-3v-3h52.6c44.2 0 52.8.2 54 1.4z"/><path d="M121.3 61.5c-.7.8-1.3 2.1-1.3 3 0 1.3-3 1.5-24 1.5-23.3 0-24-.1-24-2 0-1.6-.7-2-3-2h-3v26h3c2.1 0 3-.5 3-1.6 0-3.1 2.7-4.4 9.4-4.4H88v44h-3c-2.1 0-3 .5-3 1.6 0 3.7 2.4 4.4 15.4 4.4H110v-3c0-2.1-.5-3-1.6-3-2.2 0-5.3-3.2-3.6-3.8 1.7-.5 1.7-35.9 0-36.4-.9-.3-.8-.9.4-2.1 1.2-1.3 3.4-1.7 8.2-1.7h6.6v3c0 2.7.3 3 3 3h3V74c0-12.7-.2-14-1.7-14-1 .1-2.4.7-3 1.5zM154 80c0 13.3.1 14 2 14 1.6 0 2-.7 2-3v-3h16v22c0 21.3-.1 22-2 22-1.6 0-2 .7-2 3v3h8.9c6.2 0 9.1-.4 9.5-1.3.5-1 .7-1 1.2 0 .3.7 1.9 1.3 3.5 1.3 2.7 0 2.9-.2 2.9-4 0-2.2-.4-4-1-4-.5 0-1 .4-1 1 0 .5-.4 1-1 1s-1-8-1-22V88h14v3c0 2.8.2 3 4 3h4V81.4c0-13.6-.6-15.4-5.4-15.4-2.2 0-2.6.4-2.6 3v3h-48v-3c0-2.3-.4-3-2-3-1.9 0-2 .7-2 14zM190 186v6h12v-12h-12v6zM240 264c0 1.2.7 2 1.6 2 2.2 0 5.3 3.2 3.6 3.8-.6.2-1.2 1.2-1.2 2.2 0 1 .6 2 1.2 2.2 1.7.6-1.4 3.8-3.6 3.8-1.3 0-1.6 1.4-1.6 8v8h-6v16h-6v8c0 7.3-.2 8-2 8-1.6 0-2 .7-2 3v3h12.6c9.8 0 12.9-.3 14-1.5 1.4-1.3 1.4-1.7 0-3-.8-.8-2.2-1.5-3-1.5-1.3 0-1.6-1.4-1.6-8v-8h26v16h-3c-2.7 0-3 .3-3 3v3h28v-3c0-2.7-.3-3-3-3h-3v-8c0-7.3-.2-8-2-8s-2-.7-2-8v-8h-6v-7.6c0-7.8-1.1-10.4-4.4-10.4-1.2 0-1.6-1-1.6-3.6 0-3.8 1.8-6.4 4.4-6.4.9 0 1.6-.8 1.6-2 0-1.9-.7-2-19-2s-19 .1-19 2zm22 22c0 7.3.2 8 2 8 1.6 0 2 .7 2 3v3h-6.6c-6.7 0-9.4-1.3-9.4-4.4 0-1.1.9-1.6 3-1.6h3v-16h6v8z"/></svg>